<svg preserveAspectRatio="none" width="100%" height="100%" overflow="visible" style="display: block;" viewBox="0 0 61 57" fill="none" xmlns="http://www.w3.org/2000/svg">
<g id="avatar-2">
<path id="Vector 3" d="M56.2698 24.6822C55.8752 20.336 53.2407 13.074 48.6848 9.81238C44.129 6.55075 38.737 4.02976 30.9964 6.0496C21.4042 8.55261 18.1057 12.0308 13.8447 17.0915C6.7594 25.5067 5.22879 34.0358 8.32941 41.0438C11.1461 47.4101 19.2914 50.151 24.7278 51.4873C30.1643 52.8237 40.9607 51.6202 48.2821 45.341C56.1867 38.5616 56.8189 30.7304 56.2698 24.6822Z" fill="var(--fill-0, #FFAD0D)"/>
<g id="eyes" clip-path="url(#clip0_0_56)">
<path id="Vector" d="M40.6382 26.03C40.9039 24.3437 39.9692 22.7977 38.5507 22.5769C37.1321 22.356 35.7668 23.544 35.5012 25.2303C35.2355 26.9166 36.1702 28.4626 37.5887 28.6835C39.0073 28.9043 40.3726 27.7163 40.6382 26.03Z" fill="var(--fill-0, black)"/>
<path id="Vector_2" d="M25.4019 26.0301C25.6676 24.3438 24.7329 22.7978 23.3144 22.577C21.8958 22.3561 20.5305 23.5441 20.2649 25.2304C19.9992 26.9167 20.9339 28.4627 22.3524 28.6836C23.771 28.9044 25.1363 27.7164 25.4019 26.0301Z" fill="var(--fill-0, black)"/>
<path id="Vector_3" d="M20.0558 13.5768C20.0558 13.5768 17.9465 12.0075 16.1043 13.0891C14.262 14.1707 13.8549 16.4119 13.8549 16.4119C13.8549 16.4119 15.9257 13.4674 20.0558 13.5768Z" fill="var(--fill-0, black)"/>
<path id="Vector_4" d="M46.2443 14.1942C46.2443 14.1942 48.8157 13.6219 50.0489 15.3587C51.2821 17.0956 50.7314 19.3069 50.7314 19.3069C50.7314 19.3069 50.0556 15.7768 46.2443 14.1942Z" fill="var(--fill-0, black)"/>
<path id="Vector_5" d="M22.739 25.1827C22.6205 26.027 21.9097 26.5513 21.1671 26.4351C20.4245 26.319 19.9289 25.5609 20.0541 24.7646C20.1792 23.9684 20.8784 23.396 21.6193 23.5138C22.3602 23.6316 22.8492 24.3814 22.7373 25.1827H22.739Z" fill="var(--fill-0, white)"/>
<path id="Vector_6" d="M37.9775 25.1827C37.8591 26.027 37.1482 26.5513 36.4056 26.4351C35.6631 26.319 35.1675 25.5609 35.2926 24.7646C35.4178 23.9684 36.117 23.396 36.8579 23.5138C37.5988 23.6316 38.0877 24.3814 37.9759 25.1827H37.9775Z" fill="var(--fill-0, white)"/>
</g>
</g>
<defs>
<clipPath id="clip0_0_56">
<rect width="37" height="16" fill="white" transform="translate(13.8549 12.7095)"/>
</clipPath>
</defs>
</svg>
