<svg preserveAspectRatio="none" width="100%" height="100%" overflow="visible" style="display: block;" viewBox="0 0 53 23" fill="none" xmlns="http://www.w3.org/2000/svg">
<g id="eyes" clip-path="url(#clip0_0_144)">
<path id="Vector" d="M38.3653 19.1483C38.7458 16.7242 37.407 14.5018 35.375 14.1844C33.3431 13.8669 31.3873 15.5747 31.0069 17.9987C30.6264 20.4227 31.9652 22.6452 33.9972 22.9626C36.0291 23.2801 37.9848 21.5723 38.3653 19.1483Z" fill="var(--fill-0, black)"/>
<path id="Vector_2" d="M16.5404 19.1484C16.9209 16.7244 15.5821 14.502 13.5501 14.1845C11.5181 13.8671 9.56238 15.5748 9.18189 17.9988C8.80139 20.4229 10.1402 22.6453 12.1722 22.9628C14.2042 23.2802 16.1599 21.5725 16.5404 19.1484Z" fill="var(--fill-0, black)"/>
<path id="Vector_3" d="M8.88233 1.24685C8.88233 1.24685 5.861 -1.00903 3.22212 0.545765C0.583232 2.10056 0 5.32223 0 5.32223C0 5.32223 2.96636 1.08947 8.88233 1.24685Z" fill="var(--fill-0, black)"/>
<path id="Vector_4" d="M46.3956 2.13427C46.3956 2.13427 50.0791 1.31156 51.8455 3.80829C53.6119 6.30503 52.8231 9.48377 52.8231 9.48377C52.8231 9.48377 51.8551 4.40923 46.3956 2.13427Z" fill="var(--fill-0, black)"/>
<path id="Vector_5" d="M12.7259 17.9302C12.5562 19.144 11.538 19.8976 10.4743 19.7306C9.41059 19.5637 8.70067 18.4739 8.87994 17.3293C9.05922 16.1847 10.0607 15.3619 11.122 15.5313C12.1833 15.7006 12.8837 16.7784 12.7235 17.9302H12.7259Z" fill="var(--fill-0, white)"/>
<path id="Vector_6" d="M34.5541 17.9302C34.3844 19.144 33.3661 19.8976 32.3024 19.7306C31.2388 19.5637 30.5288 18.4739 30.7081 17.3293C30.8874 16.1847 31.8889 15.3619 32.9502 15.5313C34.0115 15.7006 34.7119 16.7784 34.5517 17.9302H34.5541Z" fill="var(--fill-0, white)"/>
</g>
<defs>
<clipPath id="clip0_0_144">
<rect width="53" height="23" fill="white"/>
</clipPath>
</defs>
</svg>
