<svg preserveAspectRatio="none" width="100%" height="100%" overflow="visible" style="display: block;" viewBox="0 0 19 19" fill="none" xmlns="http://www.w3.org/2000/svg">
<g id="email" clip-path="url(#clip0_0_38)">
<path id="Vector" d="M11.0879 11.641C10.6152 11.9561 10.0661 12.1227 9.5 12.1227C8.93393 12.1227 8.38486 11.9561 7.91216 11.641L0.126506 6.45035C0.0833105 6.42155 0.0412285 6.39153 0 6.36066V14.866C0 15.8412 0.791357 16.6151 1.74908 16.6151H17.2509C18.226 16.6151 19 15.8237 19 14.866V6.36062C18.9587 6.39157 18.9165 6.42167 18.8732 6.4505L11.0879 11.641Z" fill="var(--fill-0, white)"/>
<path id="Vector_2" d="M0.744043 5.52403L8.5297 10.7147C8.82442 10.9112 9.16219 11.0094 9.49996 11.0094C9.83777 11.0094 10.1756 10.9111 10.4703 10.7147L18.256 5.52403C18.7219 5.21361 19 4.69408 19 4.13335C19 3.16921 18.2156 2.38487 17.2515 2.38487H1.74848C0.784381 2.38491 0 3.16925 0 4.13428C0 4.69408 0.278172 5.21361 0.744043 5.52403Z" fill="var(--fill-0, white)"/>
</g>
<defs>
<clipPath id="clip0_0_38">
<rect width="19" height="19" fill="white"/>
</clipPath>
</defs>
</svg>
