<svg preserveAspectRatio="none" width="100%" height="100%" overflow="visible" style="display: block;" viewBox="0 0 25 25" fill="none" xmlns="http://www.w3.org/2000/svg">
<g id="send">
<path id="Vector" fill-rule="evenodd" clip-rule="evenodd" d="M8.17738 4.49044L18.8451 9.29089C19.6093 9.63473 20.2474 9.92188 20.7214 10.1886C21.1827 10.4482 21.6916 10.7938 21.9644 11.3455C22.324 12.073 22.324 12.9265 21.9644 13.654C21.6916 14.2057 21.1827 14.5513 20.7214 14.8108C20.2474 15.0776 19.6093 15.3648 18.8451 15.7086L8.19564 20.5008C7.41186 20.8535 6.75916 21.1473 6.23496 21.329C5.72729 21.5048 5.12036 21.6604 4.51947 21.4927C3.7305 21.2726 3.09111 20.694 2.79341 19.9309C2.56667 19.3497 2.66105 18.7303 2.78548 18.2076C2.91395 17.6679 3.14118 16.9893 3.41402 16.1743L4.47683 12.9996C4.58756 12.6688 4.59506 12.6323 4.59858 12.6053C4.60197 12.5795 4.6034 12.5534 4.60287 12.5274C4.6025 12.5088 4.60114 12.4902 4.59876 12.4717C4.5953 12.4447 4.5879 12.4082 4.47802 12.0772L3.39306 8.80836C3.12317 7.99526 2.89832 7.31789 2.77158 6.77922C2.64876 6.25719 2.55633 5.63895 2.78374 5.05912C3.08247 4.29744 3.7218 3.72044 4.51002 3.50111C5.11005 3.33416 5.71561 3.48928 6.22235 3.66482C6.74525 3.84595 7.3961 4.13885 8.17738 4.49044ZM6.49249 13.5415H11.9792C12.5545 13.5415 13.0208 13.0751 13.0208 12.4998C13.0208 11.9245 12.5545 11.4581 11.9792 11.4581H6.46767C6.46353 11.4457 6.45941 11.4333 6.45529 11.4209L5.38639 8.20047C5.09631 7.32651 4.90225 6.73861 4.79954 6.30207C4.71615 5.94761 4.72792 5.82197 4.72873 5.80633C4.78871 5.66514 4.90795 5.55752 5.05454 5.51229C5.07018 5.51308 5.19636 5.51421 5.54045 5.6334C5.9642 5.78018 6.52919 6.03331 7.36892 6.41119L17.9438 11.1699C18.7664 11.54 19.3174 11.7891 19.6996 12.0042C20.0093 12.1784 20.0919 12.27 20.1026 12.2811C20.1668 12.4198 20.1668 12.5797 20.1027 12.7183C20.0919 12.7295 20.0093 12.821 19.6996 12.9953C19.3174 13.2104 18.7664 13.4595 17.9438 13.8296L7.38714 18.5801C6.54492 18.9592 5.97804 19.2131 5.55294 19.3604C5.20771 19.48 5.08109 19.4811 5.06541 19.482C4.91877 19.4366 4.79959 19.3288 4.7398 19.1873C4.73904 19.1717 4.72756 19.0455 4.81218 18.6901C4.91636 18.2524 5.11259 17.6631 5.40578 16.7873L6.45241 13.6609C6.45858 13.6424 6.46479 13.624 6.471 13.6055C6.47817 13.5842 6.48534 13.5628 6.49249 13.5415Z" fill="var(--fill-0, #AF7400)"/>
</g>
</svg>
