<svg preserveAspectRatio="none" width="100%" height="100%" overflow="visible" style="display: block;" viewBox="0 0 19 19" fill="none" xmlns="http://www.w3.org/2000/svg">
<g id="line" clip-path="url(#clip0_0_155)">
<path id="Vector" d="M9.5 0.395833C4.26313 0.395833 -2.83122e-07 3.87758 -2.83122e-07 8.15654C-2.83122e-07 11.989 3.38042 15.2 7.94437 15.8104C8.25392 15.8761 8.67508 16.0162 8.78196 16.2806C8.87696 16.5205 8.8445 16.891 8.81204 17.1412L8.68221 17.9534C8.64658 18.1933 8.49221 18.8979 9.51267 18.4672C10.5347 18.0381 14.9878 15.2182 16.9828 12.9105C18.3477 11.4063 19 9.86496 19 8.15654C19 3.87758 14.7369 0.395833 9.5 0.395833ZM5.78154 10.701H3.89262C3.6195 10.701 3.39387 10.4737 3.39387 10.1998V6.39904C3.39387 6.12433 3.6195 5.89712 3.89262 5.89712C4.16812 5.89712 4.39137 6.12433 4.39137 6.39904V9.69792H5.78154C6.05704 9.69792 6.2795 9.92354 6.2795 10.1998C6.2795 10.4737 6.05625 10.701 5.78154 10.701ZM7.73379 10.1998C7.73379 10.4737 7.51054 10.701 7.23425 10.701C6.96112 10.701 6.73787 10.4737 6.73787 10.1998V6.39904C6.73787 6.12433 6.96112 5.89712 7.23662 5.89712C7.51054 5.89712 7.73379 6.12433 7.73379 6.39904V10.1998ZM12.2788 10.1998C12.2788 10.4152 12.141 10.606 11.9368 10.6748C11.8861 10.6915 11.8315 10.6994 11.7792 10.6994C11.6122 10.6994 11.4697 10.6273 11.3755 10.4999L9.44142 7.85729V10.199C9.44142 10.473 9.22054 10.7002 8.94188 10.7002C8.66796 10.7002 8.44629 10.473 8.44629 10.199V6.39904C8.44629 6.18371 8.58325 5.99292 8.78671 5.92483C8.83421 5.90663 8.89438 5.89871 8.94029 5.89871C9.09467 5.89871 9.23717 5.98183 9.33217 6.10137L11.2812 8.75425V6.39904C11.2812 6.12433 11.5045 5.89712 11.78 5.89712C12.0531 5.89712 12.2788 6.12433 12.2788 6.39904V10.1998ZM15.3306 7.79712C15.6069 7.79712 15.8294 8.02433 15.8294 8.29983C15.8294 8.57454 15.6069 8.80175 15.3306 8.80175H13.9413V9.69792H15.3306C15.6069 9.69792 15.8294 9.92354 15.8294 10.1998C15.8294 10.4737 15.6069 10.701 15.3306 10.701H13.4417C13.1686 10.701 12.9453 10.4737 12.9453 10.1998V6.39904C12.9453 6.12433 13.1686 5.89712 13.4441 5.89712H15.333C15.6069 5.89712 15.8294 6.12433 15.8294 6.39904C15.8294 6.67692 15.6069 6.90096 15.3306 6.90096H13.9413V7.79712H15.3306Z" fill="var(--fill-0, white)"/>
</g>
<defs>
<clipPath id="clip0_0_155">
<rect width="19" height="19" fill="white"/>
</clipPath>
</defs>
</svg>
