<svg width="163" height="33" viewBox="0 0 163 33" fill="none" xmlns="http://www.w3.org/2000/svg">
<path d="M75.9463 19.5035V31.288H80.007V19.6154C80.11 18.5855 80.5838 17.628 81.3409 16.9213C82.0979 16.2145 83.0868 15.8067 84.1225 15.7738H84.4761V11.7173H84.1225C79.3935 11.7173 76.0762 15.7425 75.9463 19.5035Z" fill="white"/>
<path d="M135.518 19.5527V31.3373H139.579V19.6647C139.683 18.6351 140.158 17.6782 140.914 16.9716C141.671 16.2651 142.659 15.857 143.694 15.8231H144.035V11.7666H143.681C138.974 11.7666 135.657 15.7917 135.518 19.5527Z" fill="white"/>
<path d="M26.3121 8.62329V31.3909H30.3732V15.7737H34.7884V11.7172H30.3732V8.62329C30.3744 7.53476 30.8079 6.49114 31.5784 5.72142C32.349 4.95168 33.3939 4.51874 34.4837 4.51755H34.8378V0.456543H34.4837C32.3167 0.460098 30.2397 1.32181 28.7078 2.85273C27.176 4.38366 26.3144 6.45886 26.3121 8.62329Z" fill="white"/>
<path d="M45.6583 4.68311H41.5972V11.7171H37.9439V15.7736H41.5972V24.3836C41.5684 25.3342 41.7331 26.2807 42.0814 27.1658C42.4296 28.0508 42.9542 28.8561 43.6232 29.5327C44.9299 30.7897 46.6818 31.4787 48.4957 31.449H50.2259V27.3925H48.5988C48.2109 27.4151 47.8225 27.3602 47.4561 27.231C47.0898 27.1018 46.7528 26.901 46.4651 26.6403C46.1853 26.3415 45.9695 25.9889 45.8308 25.604C45.692 25.2191 45.6333 24.8099 45.6583 24.4016V15.7736H50.2259V11.7171H45.6583V4.68311Z" fill="white"/>
<path d="M122.734 11.7666C120.748 11.7657 118.806 12.3533 117.154 13.455C115.502 14.5567 114.215 16.123 113.454 17.9558C112.694 19.7886 112.495 21.8055 112.882 23.7515C113.269 25.6975 114.225 27.4849 115.63 28.8878C117.034 30.2907 118.824 31.246 120.772 31.6328C122.72 32.0197 124.739 31.8207 126.574 31.061C128.409 30.3014 129.977 29.0152 131.08 27.3652C132.183 25.7152 132.771 23.7755 132.77 21.7915C132.766 19.1342 131.707 16.5871 129.826 14.708C127.945 12.829 125.395 11.7713 122.734 11.7666ZM122.734 27.7643C121.552 27.7652 120.395 27.4157 119.411 26.7599C118.427 26.1042 117.66 25.1716 117.207 24.0803C116.753 22.989 116.635 21.7879 116.865 20.629C117.095 19.4701 117.664 18.4054 118.5 17.5696C119.336 16.7339 120.401 16.1646 121.562 15.9337C122.722 15.7029 123.924 15.8209 125.017 16.2728C126.11 16.7248 127.044 17.4904 127.701 18.4727C128.358 19.455 128.709 20.61 128.709 21.7915C128.708 23.3744 128.078 24.8923 126.958 26.0121C125.838 27.1318 124.319 27.762 122.734 27.7643Z" fill="white"/>
<path d="M154.99 20.9546L161.616 11.7178H156.622L151.382 19.0114C151.294 19.1375 151.215 19.2691 151.144 19.4054V0.560059H147.083V31.3914H151.144V22.4814C151.21 22.6107 151.284 22.7363 151.364 22.8575L157.379 31.3914H162.346L154.99 20.9546Z" fill="white"/>
<path d="M104.02 24.608C103.321 20.5783 102.54 16.2934 102.075 13.7413C101.972 13.1797 101.675 12.6718 101.236 12.3061C100.797 11.9404 100.244 11.7401 99.6722 11.7399C99.0993 11.7416 98.5452 11.9444 98.1073 12.3126C97.6687 12.681 97.3737 13.1914 97.2738 13.7548L95.2749 25.002L91.4919 11.7175H87.2687L92.2443 29.1794C92.4386 29.8751 92.8562 30.4879 93.433 30.9238C94.009 31.3598 94.713 31.5948 95.4365 31.5927H95.6066C96.3575 31.5571 97.0732 31.2673 97.6375 30.7709C98.201 30.2744 98.5787 29.601 98.7083 28.8615L99.6901 23.3543C100.017 25.2169 100.34 27.084 100.618 28.763C100.741 29.4949 101.111 30.1628 101.665 30.6568C102.22 31.1507 102.926 31.4412 103.668 31.4803C104.41 31.5194 105.143 31.3048 105.747 30.8719C106.35 30.439 106.788 29.8136 106.988 29.0988L111.824 11.7041H107.611L104.02 24.608Z" fill="white"/>
<path d="M11.4839 4.73446e-06H11.4615C10.7514 -0.00120541 10.0604 0.229602 9.49384 0.657241C8.92737 1.08488 8.51644 1.68587 8.32374 2.36854L-0.00915527 31.3911H4.21781L6.45904 23.5287H16.7687L19.1489 31.3911H23.3938L14.5857 2.32378C14.3873 1.65495 13.9784 1.06775 13.4198 0.649193C12.8611 0.230642 12.1822 0.00300672 11.4839 4.73446e-06ZM7.64691 19.4588L11.5018 6.02658L15.5719 19.4588H7.64691Z" fill="white"/>
<path d="M68.2814 23.8334H68.4069C68.5997 23.8334 68.8552 23.8334 69.1689 23.8334C69.6459 23.8429 70.1192 23.7499 70.557 23.5607C70.9947 23.3714 71.3866 23.0903 71.7061 22.7364C72.0693 22.3138 72.3393 21.8194 72.4984 21.2855C72.6575 20.7517 72.7022 20.1903 72.6295 19.638C72.4959 18.8483 72.2483 18.0821 71.8943 17.3635C69.9265 13.6965 66.735 11.7578 62.6649 11.7578H62.638C61.2111 11.8071 59.8099 12.1508 58.5224 12.7672C57.2349 13.3836 56.089 14.2595 55.1567 15.3397C52.6107 18.3127 51.9473 22.02 53.3324 25.5169C54.0065 27.2342 55.1316 28.7382 56.5894 29.8704C58.0472 31.0028 59.7836 31.7214 61.616 31.9509C62.0194 31.9912 62.4183 32.0136 62.8128 32.0136C65.2672 32.0301 67.6485 31.1802 69.5365 29.6137C70.6959 28.6612 71.6169 27.4516 72.226 26.081H67.385C67.2428 26.2275 67.0932 26.3665 66.9367 26.4974C66.2676 27.0558 65.4902 27.4701 64.6533 27.7144C63.8164 27.9586 62.9381 28.0276 62.0732 27.9167C60.9773 27.7682 59.9416 27.3283 59.0742 26.643C58.2068 25.9578 57.5397 25.0523 57.1425 24.0214C57.1425 23.9632 57.1022 23.9095 57.0797 23.8468H68.2814V23.8334ZM58.2451 17.9635C59.1417 16.9247 60.8898 15.8053 62.6469 15.8009C65.1975 15.8009 67.0443 16.9337 68.2814 19.235C68.3308 19.338 68.4159 19.5709 68.4831 19.7679H68.2052H57.1156C57.3946 19.1097 57.7775 18.5004 58.2497 17.9635H58.2451Z" fill="white"/>
</svg>
