<svg width="71" height="60" viewBox="0 0 71 60" fill="none" xmlns="http://www.w3.org/2000/svg">
<path d="M70.6917 33.0418C70.6917 34.1676 70.4011 35.2294 69.6675 36.7561C69.5405 37.0279 68.7054 38.3258 68.4158 38.7075C67.917 39.361 66.4853 40.6772 65.706 41.2053C64.9358 41.7225 63.3863 42.5673 63.2035 42.5673C63.1588 42.5673 63.0226 42.6213 62.8956 42.6854C62.7686 42.7485 62.4882 42.8574 62.2616 42.9206C62.035 42.9847 61.7536 43.0753 61.6266 43.1119C60.9386 43.3297 59.94 43.5018 58.3823 43.6656C57.5847 43.7471 57.1041 43.7471 56.2526 43.6656C54.6108 43.5018 53.8315 43.3929 53.3692 43.2382C52.355 42.9114 51.9028 41.7133 52.409 40.7422C52.5716 40.4319 52.7351 40.279 53.1426 40.0795C53.488 39.8977 54.0291 39.8614 54.7661 39.9706C56.1978 40.1701 58.4828 40.1793 59.5335 39.9797C63.2958 39.2622 66.0321 37.0279 67.0563 33.8583C67.3916 32.8331 67.4099 32.878 65.9773 31.4876C64.9175 30.4625 64.6818 30.1806 64.5283 29.7815C64.3291 29.2644 64.2926 28.4196 64.436 27.81C64.5539 27.302 64.5539 24.6495 64.436 24.0417C63.9198 21.4075 62.8591 19.3563 61.1469 17.6493C58.8437 15.3711 55.7446 14.0989 52.0188 13.9176C51.2852 13.881 50.578 13.7986 50.4154 13.7263C50.0171 13.5726 49.6909 13.2275 49.4817 12.7552C49.319 12.401 49.3008 12.1291 49.3008 8.22449C49.3008 5.93534 49.2825 4.06539 49.2551 4.06539C49.1464 4.06539 47.3977 4.73722 46.5809 5.09052C45.4388 5.59027 43.7897 6.44333 42.7299 7.08953C42.1224 7.46114 40.4732 8.5421 40.4175 8.60526C40.381 8.64187 39.439 9.33109 39.0315 9.613C38.9858 9.64046 39.312 10.0304 39.7387 10.4752C40.1736 10.92 40.635 11.4198 40.7711 11.601C40.8981 11.774 41.0342 11.9369 41.0607 11.9644C41.4326 12.282 42.9748 15.0416 43.3914 16.1409C44.252 18.3834 44.7518 20.527 44.95 22.7694C44.9948 23.3232 45.077 23.768 45.1675 23.9044C45.3758 24.2129 45.7741 24.4948 46.8979 25.0851C47.4424 25.3753 47.9778 25.6563 48.0765 25.7204C48.1761 25.7835 48.6832 26.0563 49.2094 26.3382C51.6643 27.6361 52.2354 28.0168 52.8173 28.7893C53.7228 30.0058 54.0407 30.9229 54.0407 32.3489C54.0297 33.5114 53.805 34.5822 53.2066 36.2261C51.8187 40.0402 48.6201 43.1192 44.6321 44.4619C43.8884 44.7072 42.8469 44.98 42.1388 45.0981C41.8126 45.1521 41.2955 45.2345 40.9876 45.2885C40.1087 45.4431 36.5464 45.3791 35.4766 45.1887C32.6224 44.699 30.1656 43.6089 28.1812 41.9559C27.0035 40.9756 26.6765 40.3495 26.9113 39.4763C27.1378 38.6233 28.0898 38.0329 28.9322 38.2233C29.3854 38.3231 29.6028 38.4503 30.0377 38.8951C30.9358 39.7939 32.8663 40.885 34.3428 41.3298C36.6369 42.0199 39.0215 42.1014 41.7761 41.5925C43.7879 41.23 45.8189 40.2397 47.2506 38.9235C48.7279 37.5707 49.9248 35.4454 50.4236 33.267C50.6137 32.4588 50.6045 31.9764 50.3779 31.4858C50.1331 30.9504 49.753 30.6144 48.8376 30.1339C48.4209 29.9051 47.9312 29.6525 47.7595 29.5527C47.4781 29.3889 46.326 28.772 44.4055 27.7368C42.412 26.675 41.64 25.4494 41.4682 23.088C41.3686 21.7608 40.9246 19.7005 40.4897 18.5023C40.3901 18.2296 40.2704 17.8845 40.2266 17.7307C40.0639 17.1852 38.9667 15.1148 38.4779 14.4339C37.9699 13.7346 37.0645 12.736 36.3829 12.1355C35.4318 11.3008 33.674 10.3205 32.3419 9.87477C29.812 9.04002 26.967 8.86703 23.8305 9.33932C22.397 9.55716 20.7488 10.0112 19.3893 10.5558C17.3227 11.3914 14.8659 12.8449 13.2707 14.1794C12.4192 14.897 10.7052 16.5775 10.0346 17.3582C9.77241 17.6667 9.53669 17.9303 9.50928 17.9577C9.13743 18.311 7.51574 20.6807 6.83599 21.8624C6.5281 22.3978 5.71222 24.0499 5.26728 25.0394C4.84153 25.9931 4.13438 28.2722 3.9078 29.398C3.85389 29.6708 3.76253 30.1065 3.71776 30.3518C3.35505 32.1494 3.37332 34.6106 3.75248 36.0714C3.97175 36.8888 4.04301 37.0792 4.37923 37.751C5.376 39.7409 7.02511 40.9847 9.37315 41.5202C10.8861 41.8653 13.0341 41.8103 14.3589 41.4021C16.5059 40.7303 18.2007 39.1038 19.3793 36.5712C20.0334 35.1552 20.2509 34.5282 20.831 32.2126C21.4742 29.6982 21.8095 28.4617 22.0178 27.8997C22.0544 27.799 22.217 27.291 22.3897 26.7647C22.5523 26.2384 22.7159 25.7753 22.7606 25.7295C22.7972 25.6746 22.8337 25.5657 22.8337 25.4751C22.8337 25.3844 22.8693 25.2389 22.9242 25.1483C22.9689 25.0668 23.1507 24.6129 23.3316 24.1497C23.5043 23.6774 23.7044 23.1694 23.7757 23.0147C25.4988 19.0735 26.967 16.6406 29.2328 13.9524C30.5375 12.4001 31.1185 12.0458 31.9609 12.2454C32.8398 12.4632 33.3478 13.0994 33.3478 13.9899C33.3478 14.5702 33.1751 14.8521 32.0879 16.0686C31.1907 17.0781 31.0729 17.2218 30.8106 17.5935C30.691 17.7664 30.5658 17.9303 30.5384 17.9587C30.4571 18.0401 29.6777 19.2382 29.1515 20.1096C28.5987 21.0267 27.5371 23.1063 27.2566 23.8147C27.157 24.06 26.9862 24.4774 26.8574 24.7501C26.7404 25.0128 26.6417 25.2673 26.6417 25.3131C26.6417 25.3671 26.6052 25.476 26.5586 25.5666C26.4152 25.821 25.9611 27.1006 25.5627 28.3546C25.3627 29.009 25.1543 29.6625 25.1004 29.809C24.9808 30.1806 24.7907 30.8982 24.3284 32.7315C24.111 33.5855 23.8488 34.585 23.741 34.9575C22.1266 40.5051 19.1171 43.8908 14.9481 44.8638C12.919 45.3361 10.6248 45.3809 8.64955 44.9727C5.25906 44.2734 2.54922 42.1572 1.09837 39.0709C0.80875 38.4439 0.39122 37.1808 0.265138 36.5272C0.21032 36.2279 0.11987 35.8106 0.0741886 35.5927C-0.0528065 35.0207 -0.00712477 31.4977 0.138143 30.5348C0.31082 29.3815 0.509992 28.382 0.727437 27.5391C0.917472 26.8123 1.56067 24.7977 1.70685 24.4508C1.75162 24.3511 1.95901 23.8431 2.17829 23.3159C3.79085 19.4112 6.57469 15.4169 9.60978 12.638C10.6806 11.6578 10.8605 11.5031 11.7121 10.8496C13.4534 9.52421 15.9266 8.0991 17.7119 7.38059C19.5154 6.67215 21.583 6.10925 23.2412 5.88134C23.6944 5.81818 24.2654 5.73672 24.5111 5.70011C25.3088 5.56373 28.9615 5.59119 29.9135 5.73672C32.2414 6.09003 33.9828 6.59893 35.514 7.37968C35.9316 7.58836 35.9581 7.58836 36.1216 7.44283C36.5382 7.06207 38.5044 5.62689 39.6473 4.8736C41.3604 3.73863 43.681 2.49383 45.5384 1.70576C47.7421 0.77033 50.705 -0.0918784 51.3491 0.0078888C51.7749 0.0801971 52.2363 0.380414 52.5451 0.779483C52.7077 0.991221 52.7985 2.64974 52.8173 5.75503C52.8362 8.86032 52.9115 10.4285 53.043 10.4596C53.1517 10.4862 53.3966 10.5136 53.5775 10.5136C54.0051 10.5136 55.6816 10.8313 56.5057 11.0674C58.809 11.7301 61.0199 12.8742 62.6161 14.2188C63.3031 14.8 64.3465 15.8526 64.7001 16.3249C64.8271 16.4969 64.9632 16.6608 64.9906 16.6882C65.0975 16.7788 66.1317 18.3852 66.3583 18.8209C66.4853 19.0753 66.7658 19.7023 66.975 20.2295C67.8631 22.4445 68.2258 24.8792 68.0074 27.194C67.9349 28.0293 68.1981 28.7314 68.7968 29.3001C70.255 30.6712 70.6908 31.5334 70.6908 33.0418H70.6917ZM60.4489 29.6818C61.3461 29.2186 61.781 28.4095 61.6906 27.356C61.6449 26.7208 61.4731 26.3492 61.0474 25.9217C60.5668 25.432 60.1319 25.2682 59.3617 25.2682C58.3832 25.2682 57.6569 25.6856 57.2128 26.5212C56.9588 26.9935 56.9863 28.155 57.2759 28.7088C57.8469 29.8364 59.2987 30.2794 60.4489 29.6818ZM35.7954 29.1005C36.1938 29.2818 37.3824 29.2461 37.8173 29.0365C38.2705 28.8186 38.6871 28.4196 38.9767 27.9024C39.2581 27.3935 39.2672 26.2485 38.9858 25.7222C38.1617 24.1515 36.2568 23.8339 34.9987 25.0687C33.7845 26.2576 34.2103 28.3921 35.7963 29.1005H35.7954ZM10.3206 51.5152V51.5289C10.4019 51.5472 10.4604 51.5921 10.496 51.6644C10.5316 51.7367 10.5316 51.8136 10.496 51.8941C10.4421 52.0113 10.3425 52.2374 10.1991 52.5705C10.1899 52.5971 10.1927 52.62 10.2055 52.6383C10.2192 52.6566 10.2347 52.6657 10.253 52.6657H11.1986C11.3338 52.6657 11.448 52.7133 11.543 52.8076C11.6381 52.9028 11.6846 53.0154 11.6846 53.1463C11.6846 53.2772 11.6371 53.3897 11.543 53.4849C11.448 53.5792 11.3338 53.6268 11.1986 53.6268H5.71496C5.57975 53.6268 5.46554 53.5792 5.37052 53.4849C5.27551 53.3897 5.22891 53.2772 5.22891 53.1463C5.22891 53.0154 5.27642 52.9028 5.37052 52.8076C5.46554 52.7133 5.57975 52.6657 5.71496 52.6657H6.57926C6.65144 52.6657 6.67793 52.6346 6.66057 52.5715C6.60667 52.3371 6.52992 52.0845 6.43125 51.8136C6.41298 51.7504 6.42029 51.69 6.45135 51.6305C6.48242 51.572 6.52992 51.5381 6.59296 51.5289V51.5152H5.97169C5.84561 51.5152 5.73963 51.4722 5.65466 51.3871C5.56878 51.301 5.52584 51.1958 5.52584 51.0695C5.52584 50.9432 5.56878 50.837 5.65466 50.7519C5.74054 50.6658 5.84561 50.6237 5.97169 50.6237H7.8218C7.88484 50.6237 7.91682 50.5926 7.91682 50.5294V50.34C7.91682 50.178 7.97072 50.0425 8.07853 49.9336C8.18634 49.8256 8.31882 49.7716 8.47688 49.7716C8.63494 49.7716 8.76741 49.8256 8.87522 49.9336C8.98303 50.0416 9.03693 50.1771 9.03693 50.34V50.5294C9.03693 50.5926 9.068 50.6237 9.13195 50.6237H11.036C11.162 50.6237 11.268 50.6667 11.353 50.7519C11.4389 50.8379 11.4818 50.9441 11.4818 51.0695C11.4818 51.1949 11.4389 51.3019 11.353 51.3871C11.2671 51.4731 11.162 51.5152 11.036 51.5152H10.3206ZM6.72818 49.2691C6.66514 49.2691 6.63316 49.3057 6.63316 49.3771V49.7286C6.63316 49.8906 6.57652 50.0288 6.46414 50.1414C6.35177 50.2539 6.21381 50.3107 6.05209 50.3107C5.89038 50.3107 5.75242 50.2549 5.64005 50.1414C5.52767 50.0288 5.47102 49.8906 5.47102 49.7286V49.011C5.47102 48.794 5.54777 48.6073 5.70034 48.449C5.85384 48.2915 6.04204 48.2119 6.26771 48.2119H10.6038C10.676 48.2119 10.7116 48.1808 10.7116 48.1167V47.9135C10.7116 47.7424 10.7747 47.5932 10.9007 47.4669C11.0268 47.3406 11.1776 47.2774 11.353 47.2774C11.5284 47.2774 11.6792 47.3406 11.8052 47.4669C11.9313 47.5932 11.9944 47.7424 11.9944 47.9135V48.1167C11.9944 48.1799 12.03 48.2119 12.1022 48.2119H16.4785C16.7032 48.2119 16.8924 48.2906 17.0458 48.449C17.1984 48.6073 17.2752 48.794 17.2752 49.011V49.7148C17.2752 49.8768 17.2167 50.0169 17.0998 50.134C16.9828 50.2512 16.8403 50.3098 16.674 50.3098C16.5077 50.3098 16.3652 50.2512 16.2482 50.134C16.1313 50.0169 16.0728 49.8768 16.0728 49.7148V49.3762C16.0728 49.3039 16.0409 49.2682 15.9778 49.2682H6.72818V49.2691ZM10.1991 54.208C10.4238 54.208 10.613 54.2849 10.7664 54.4378C10.919 54.5915 10.9958 54.781 10.9958 55.0061V58.9035C10.9958 59.1744 10.962 59.3767 10.8944 59.5121C10.8267 59.6476 10.7025 59.7556 10.5225 59.8371C10.2795 59.9359 9.87839 59.9863 9.32016 59.9863C9.18494 59.9863 9.06343 59.9432 8.95562 59.8581C8.84781 59.7721 8.7665 59.6623 8.7126 59.5268C8.67605 59.4188 8.68793 59.319 8.7464 59.2293C8.80487 59.1387 8.88801 59.0939 8.99582 59.0939H9.6308C9.75688 59.0847 9.81992 59.0215 9.81992 58.9044V58.0651C9.81992 57.9928 9.78794 57.9571 9.72581 57.9571H7.25444C7.1914 57.9571 7.15942 57.9928 7.15942 58.0651V59.4316C7.15942 59.5845 7.10277 59.7181 6.9904 59.8307C6.87802 59.9433 6.7428 60 6.58474 60C6.42668 60 6.29421 59.9433 6.1864 59.8307C6.07859 59.7181 6.02468 59.5845 6.02468 59.4316V55.0071C6.02468 54.7819 6.10143 54.5924 6.25401 54.4387C6.40658 54.2858 6.59571 54.2089 6.82137 54.2089H10.1982L10.1991 54.208ZM9.82083 55.1819C9.82083 55.1096 9.78886 55.0739 9.72673 55.0739H7.25535C7.19231 55.0739 7.16033 55.1105 7.16033 55.1819V55.6551C7.16033 55.7274 7.19139 55.7631 7.25535 55.7631H9.72673C9.78977 55.7631 9.82083 55.7274 9.82083 55.6551V55.1819ZM7.16033 57.1168C7.16033 57.18 7.19139 57.2111 7.25535 57.2111H9.72673C9.78977 57.2111 9.82083 57.18 9.82083 57.1168V56.6024C9.82083 56.5393 9.78886 56.5081 9.72673 56.5081H7.25535C7.19231 56.5081 7.16033 56.5402 7.16033 56.6024V57.1168ZM9.44259 51.6095C9.44259 51.5912 9.43619 51.571 9.42249 51.5491C9.40878 51.5262 9.38868 51.5152 9.36219 51.5152H7.53858C7.51208 51.5152 7.49107 51.5262 7.47736 51.5491C7.46366 51.572 7.46183 51.5921 7.47097 51.6095C7.60618 51.9253 7.70486 52.2456 7.7679 52.5705C7.78617 52.6337 7.82637 52.6648 7.88941 52.6648H8.92913C9.0013 52.6648 9.05064 52.6337 9.07714 52.5705C9.25712 52.1468 9.37863 51.8264 9.44168 51.6095H9.44259ZM16.4529 57.5232C16.6155 57.5232 16.7526 57.58 16.8649 57.6925C16.9773 57.8051 17.034 57.9388 17.034 58.0916C17.034 58.1456 17.0568 58.1822 17.1016 58.1996H17.1153C17.3044 58.2719 17.4488 58.3891 17.5474 58.5511C17.6196 58.6591 17.6552 58.7726 17.6552 58.8897C17.6552 58.9438 17.6461 59.0023 17.6287 59.0655C17.5292 59.3904 17.3738 59.6183 17.1628 59.7492C16.9508 59.8801 16.6338 59.9451 16.2108 59.9451H13.8609C13.1766 59.9451 12.7107 59.8453 12.4631 59.6476C12.2155 59.449 12.0912 59.0563 12.0912 58.4705V54.4515C12.0912 54.2263 12.1698 54.0369 12.3278 53.8831C12.485 53.7302 12.6723 53.6533 12.8888 53.6533H15.7119C15.7841 53.6533 15.8198 53.6176 15.8198 53.5453V53.0172C15.8198 52.9541 15.7841 52.9229 15.7119 52.9229H12.8888C12.6723 52.9229 12.4859 52.8442 12.3278 52.6859C12.1707 52.5284 12.0912 52.3408 12.0912 52.1239V50.4187C12.0912 50.2567 12.1497 50.1166 12.2666 49.9995C12.3836 49.8823 12.5234 49.8237 12.6851 49.8237C12.8468 49.8237 12.9838 49.8823 13.0971 49.9995C13.2095 50.1166 13.2661 50.2567 13.2661 50.4187V50.5542C13.2661 50.6173 13.2972 50.6484 13.3612 50.6484H16.7105C16.8275 50.6484 16.9289 50.6887 17.0148 50.7702C17.1007 50.8516 17.1427 50.9532 17.1427 51.075C17.1427 51.1967 17.0998 51.2983 17.0148 51.3797C16.9289 51.4612 16.8275 51.5015 16.7105 51.5015H13.374C13.3018 51.5015 13.2661 51.5381 13.2661 51.6095V52.0159C13.2661 52.079 13.3018 52.1111 13.374 52.1111H16.2236C16.4401 52.1111 16.6265 52.1898 16.7836 52.3481C16.9408 52.5065 17.0203 52.6932 17.0203 52.9101V53.6405C17.0203 53.8657 16.9417 54.0552 16.7836 54.2089C16.6256 54.3627 16.4392 54.4387 16.2236 54.4387H13.374C13.3018 54.4387 13.2661 54.4744 13.2661 54.5467V54.9119C13.2661 54.975 13.3018 55.0061 13.374 55.0061H16.3451C16.4438 55.0061 16.5278 55.0428 16.5945 55.1142C16.6621 55.1865 16.6959 55.2698 16.6959 55.364C16.6959 55.4583 16.6621 55.5398 16.5945 55.6075C16.5269 55.6752 16.4438 55.7091 16.3451 55.7091H13.374C13.3018 55.7091 13.2661 55.7457 13.2661 55.8171V56.1558C13.2661 56.2189 13.3018 56.25 13.374 56.25H16.2775C16.3762 56.25 16.4602 56.2866 16.5278 56.358C16.5954 56.4303 16.6292 56.5136 16.6292 56.6088C16.6292 56.704 16.5954 56.7873 16.5278 56.8587C16.4602 56.931 16.3771 56.9667 16.2775 56.9667H13.374C13.3018 56.9667 13.2661 56.9987 13.2661 57.061V57.4125C13.2661 57.4848 13.3018 57.5205 13.374 57.5205H16.4529V57.5232ZM14.008 58.9575H16.1012C16.2994 58.9575 16.4365 58.9172 16.5132 58.8357C16.5899 58.7543 16.6457 58.5831 16.6822 58.3213C16.6914 58.2582 16.6639 58.2271 16.6009 58.2271H13.373C13.3009 58.2271 13.2652 58.2591 13.2652 58.3213V58.4568C13.2652 58.6737 13.31 58.811 13.4004 58.8696C13.49 58.9282 13.6928 58.9575 14.008 58.9575ZM42.7436 48.1661C42.9602 48.1661 43.1465 48.2449 43.3037 48.4032C43.4608 48.5616 43.5403 48.7483 43.5403 48.9652V56.5292C43.5403 56.7544 43.4608 56.9438 43.3037 57.0976C43.1465 57.2514 42.9592 57.3273 42.7436 57.3273H40.7583C40.6953 57.3273 40.6642 57.363 40.6642 57.4353V57.8957C40.6642 58.0577 40.6057 58.1978 40.4888 58.3149C40.3718 58.4321 40.232 58.4907 40.0703 58.4907C39.9086 58.4907 39.7688 58.4321 39.6519 58.3149C39.5349 58.1978 39.4765 58.0577 39.4765 57.8957V48.9652C39.4765 48.7483 39.5532 48.5616 39.7058 48.4032C39.8584 48.2458 40.0484 48.1661 40.2732 48.1661H42.7445H42.7436ZM42.3252 49.4384C42.3252 49.3661 42.2895 49.3304 42.2174 49.3304H40.7583C40.6953 49.3304 40.6642 49.367 40.6642 49.4384V52.0232C40.6642 52.0864 40.6953 52.1184 40.7583 52.1184H42.2174C42.2895 52.1184 42.3252 52.0873 42.3252 52.0232V49.4384ZM40.6642 56.0825C40.6642 56.1457 40.6953 56.1777 40.7583 56.1777H42.2174C42.2895 56.1777 42.3252 56.1466 42.3252 56.0825V53.3632C42.3252 53.2909 42.2895 53.2552 42.2174 53.2552H40.7583C40.6953 53.2552 40.6642 53.2909 40.6642 53.3632V56.0825ZM51.5437 51.6781C51.6561 51.7907 51.7128 51.8475 51.7128 51.8475V52.0845C51.7128 52.2429 51.6561 52.3756 51.5437 52.4836C51.4314 52.5916 51.298 52.6456 51.1454 52.6456H50.2135C50.1413 52.6456 50.1057 52.6813 50.1057 52.7536V53.9307C50.1057 54.003 50.1413 54.0387 50.2135 54.0387H51.0239C51.1765 54.0387 51.3099 54.0927 51.4222 54.2007C51.5346 54.3087 51.5912 54.4423 51.5912 54.5998C51.5912 54.7572 51.5346 54.8908 51.4222 54.9988C51.3099 55.1068 51.1765 55.1608 51.0239 55.1608H50.2135C50.1413 55.1608 50.1057 55.1974 50.1057 55.2688V58.5703C50.1057 58.9135 50.0609 59.1771 49.9705 59.362C49.88 59.5469 49.7229 59.6842 49.4981 59.7748C49.1921 59.9011 48.6512 59.9735 47.8773 59.9918H47.8636C47.6836 59.9918 47.521 59.9332 47.3776 59.816C47.2332 59.6989 47.13 59.5497 47.0669 59.3694C47.013 59.2339 47.0286 59.1058 47.1144 58.984C47.2003 58.8623 47.3145 58.801 47.4589 58.801C47.8006 58.8101 48.1697 58.8147 48.5662 58.8147C48.674 58.8055 48.7489 58.7836 48.7891 58.747C48.8293 58.7113 48.8503 58.6435 48.8503 58.5438V55.2688C48.8503 55.1965 48.8184 55.1608 48.7553 55.1608H44.379C44.2255 55.1608 44.0931 55.1068 43.9807 54.9988C43.8683 54.8908 43.8117 54.7572 43.8117 54.5998C43.8117 54.4423 43.8674 54.3087 43.9807 54.2007C44.0931 54.0927 44.2255 54.0387 44.379 54.0387H48.7553C48.8184 54.0387 48.8503 54.003 48.8503 53.9307V52.7536C48.8503 52.6813 48.8184 52.6456 48.7553 52.6456H44.3388C44.1853 52.6456 44.0529 52.5916 43.9405 52.4836C43.8281 52.3756 43.7715 52.242 43.7715 52.0845C43.7715 51.9271 43.8281 51.7916 43.9405 51.6791C44.0529 51.5665 44.1853 51.5097 44.3388 51.5097H46.9591C47.0313 51.5097 47.0669 51.4786 47.0669 51.4154V50.0892C47.0669 50.026 47.0313 49.994 46.9591 49.994H44.866C44.7034 49.994 44.5691 49.9382 44.4603 49.8247C44.3525 49.7121 44.2977 49.5794 44.2977 49.4256C44.2977 49.2718 44.3516 49.1419 44.4603 49.0329C44.5681 48.9249 44.7034 48.8709 44.866 48.8709H46.9591C47.0313 48.8709 47.0669 48.8352 47.0669 48.7629V47.9236C47.0669 47.7524 47.13 47.6032 47.2561 47.4769C47.3821 47.3506 47.5329 47.2875 47.7083 47.2875C47.8837 47.2875 48.0345 47.3506 48.1606 47.4769C48.2866 47.6032 48.3497 47.7524 48.3497 47.9236V48.7629C48.3497 48.8352 48.3853 48.8709 48.4575 48.8709H50.6456C50.7982 48.8709 50.9298 48.9249 51.0376 49.0329C51.1454 49.1409 51.1993 49.2718 51.1993 49.4256C51.1993 49.5794 51.1454 49.7121 51.0376 49.8247C50.9298 49.9372 50.7991 49.994 50.6456 49.994H48.4575C48.3853 49.994 48.3497 50.026 48.3497 50.0892V51.4154C48.3497 51.4786 48.3853 51.5097 48.4575 51.5097H51.1454C51.298 51.5097 51.4314 51.5665 51.5437 51.6791V51.6781ZM44.9318 56.5557C44.8505 56.466 44.8103 56.3617 44.8103 56.2445C44.8103 56.2171 44.8148 56.186 44.824 56.1494C44.8422 56.0047 44.9181 55.8922 45.0533 55.8107C45.1702 55.7475 45.2917 55.7155 45.4178 55.7155H45.5393C45.7193 55.743 45.8637 55.8235 45.9715 55.959C46.3854 56.4285 46.7234 56.8615 46.9847 57.2578C47.0478 57.3575 47.0797 57.4655 47.0797 57.5827C47.0797 57.6367 47.0752 57.6907 47.066 57.7447C47.0121 57.9159 46.908 58.0513 46.7554 58.1502C46.6558 58.2042 46.5571 58.2316 46.4585 58.2316C46.4045 58.2316 46.3461 58.2225 46.283 58.2042C46.1213 58.1593 45.9952 58.0605 45.9048 57.9067C45.6435 57.4829 45.3192 57.0317 44.9327 56.5539L44.9318 56.5557ZM62.1127 58.7753H63.6795C63.9043 58.7753 64.055 58.6765 64.1318 58.4779C64.2076 58.2792 64.2643 57.8463 64.3008 57.1791C64.3099 57.0344 64.3776 56.9264 64.5036 56.8541C64.6297 56.7818 64.7604 56.7772 64.8956 56.8404C65.0756 56.9219 65.2199 57.0436 65.3277 57.2056C65.4182 57.3411 65.463 57.4857 65.463 57.6385V57.72C65.3725 58.6042 65.2108 59.2019 64.9769 59.5131C64.743 59.8243 64.3465 59.9799 63.7883 59.9799H61.9509C61.2758 59.9799 60.8208 59.8581 60.5869 59.6147C60.353 59.3712 60.236 58.9062 60.236 58.2207V53.7687C60.236 53.7055 60.2004 53.6735 60.1282 53.6735H58.0479C57.9849 53.6735 57.9483 53.7055 57.9401 53.7687C57.8862 54.3636 57.8167 54.8853 57.7309 55.3311C57.645 55.7777 57.5143 56.2354 57.3389 56.7049C57.1635 57.1745 56.9451 57.5845 56.6838 57.936C56.4225 58.2875 56.0808 58.6243 55.6569 58.9437C55.2339 59.2641 54.7387 59.5414 54.1714 59.7758C54.0809 59.8115 53.9914 59.8298 53.9009 59.8298C53.8105 59.8298 53.7209 59.8115 53.6305 59.7758C53.4505 59.7126 53.297 59.5954 53.1709 59.4243C53.1079 59.3337 53.0768 59.2394 53.0768 59.1405C53.0768 59.0957 53.0814 59.0499 53.0905 59.0051C53.1353 58.8522 53.2303 58.7433 53.3737 58.6801C53.8689 58.4907 54.2993 58.2628 54.6638 57.9964C55.0283 57.7301 55.3207 57.4573 55.5418 57.1781C55.762 56.899 55.9447 56.5621 56.0891 56.1704C56.2334 55.7777 56.3394 55.4061 56.4061 55.0537C56.4737 54.7023 56.5294 54.2739 56.5751 53.7687C56.5843 53.7055 56.5523 53.6735 56.481 53.6735H53.6579C53.487 53.6735 53.3409 53.6122 53.2193 53.4904C53.0978 53.3687 53.0366 53.2222 53.0366 53.0511C53.0366 52.8799 53.0978 52.7353 53.2193 52.6181C53.3409 52.501 53.487 52.4424 53.6579 52.4424H58.3713C58.4435 52.4424 58.4791 52.4067 58.4791 52.3344V47.9501C58.4791 47.7698 58.5422 47.617 58.6683 47.4897C58.7943 47.3634 58.9469 47.3003 59.1278 47.3003C59.3087 47.3003 59.4613 47.3634 59.5874 47.4897C59.7135 47.6161 59.7765 47.7698 59.7765 47.9501V52.3344C59.7765 52.4067 59.8121 52.4424 59.8843 52.4424H64.7065C64.8773 52.4424 65.0235 52.501 65.145 52.6181C65.2665 52.7353 65.3277 52.8799 65.3277 53.0511C65.3277 53.2222 65.2665 53.3687 65.145 53.4904C65.0235 53.6122 64.8773 53.6735 64.7065 53.6735H61.6403C61.5681 53.6735 61.5325 53.7055 61.5325 53.7687V58.2207C61.5325 58.4458 61.5681 58.595 61.6403 58.6673C61.7125 58.7396 61.8696 58.7753 62.1127 58.7753ZM56.6966 50.6567C56.7231 50.729 56.7368 50.8059 56.7368 50.8864C56.7368 50.9862 56.714 51.0804 56.6692 51.1701C56.5879 51.3413 56.4573 51.463 56.2773 51.5354C56.2051 51.5628 56.1329 51.5756 56.0607 51.5756C55.9703 51.5756 55.8808 51.5527 55.7903 51.5079C55.6286 51.4264 55.5153 51.3001 55.4523 51.129C55.2001 50.4342 54.8575 49.6901 54.4253 48.8965C54.3806 48.8151 54.3577 48.7345 54.3577 48.6531C54.3577 48.5899 54.366 48.5268 54.3842 48.4636C54.4381 48.3108 54.5414 48.2064 54.6949 48.1524C54.7844 48.1167 54.8748 48.0984 54.9653 48.0984C55.0466 48.0984 55.127 48.1121 55.2083 48.1387C55.3792 48.2018 55.5144 48.3098 55.614 48.4636C56.0818 49.248 56.4426 49.9793 56.6948 50.6558L56.6966 50.6567ZM62.8015 48.4645C62.8828 48.2842 63.0089 48.1533 63.1798 48.0719C63.2785 48.0179 63.378 47.9904 63.4767 47.9904C63.558 47.9904 63.6393 48.0087 63.7197 48.0444C63.8997 48.1076 64.0258 48.2247 64.098 48.3959C64.1336 48.4773 64.1519 48.5579 64.1519 48.6394C64.1519 48.7391 64.129 48.8334 64.0843 48.9231C63.6339 49.8256 63.2154 50.5917 62.828 51.2232C62.7376 51.3679 62.6069 51.4667 62.4361 51.5207C62.3639 51.539 62.2872 51.5472 62.2068 51.5472C62.1264 51.5472 62.0405 51.5335 61.95 51.507C61.8057 51.4438 61.707 51.3404 61.6531 51.1958C61.6348 51.1418 61.6257 51.0878 61.6257 51.0338C61.6257 50.9441 61.6485 50.858 61.6933 50.7766C62.1163 50.0279 62.4854 49.2563 62.8006 48.4627L62.8015 48.4645ZM29.3278 47.6362C26.0378 47.6362 23.3591 50.3061 23.3353 53.5966H21.7995L23.9438 55.7265L26.0698 53.5966H24.4974C24.5212 50.9477 26.6792 48.7995 29.3287 48.7995C31.9783 48.7995 34.1609 50.9706 34.1609 53.6405C34.1609 56.3104 31.9929 58.4815 29.3287 58.4815C28.0186 58.4815 26.829 57.9561 25.9574 57.1049L25.1525 57.9424C26.2324 58.995 27.7061 59.6449 29.3287 59.6449C32.6334 59.6449 35.3222 56.9511 35.3222 53.6405C35.3222 50.3299 32.6334 47.6362 29.3287 47.6362H29.3278ZM31.3881 55.6853L29.665 53.6588L29.5151 49.9812H29.1405L28.8783 53.9591L31.2008 55.948L31.3881 55.6853Z" fill="white"/>
</svg>
