<svg preserveAspectRatio="none" width="100%" height="100%" overflow="visible" style="display: block;" viewBox="0 0 1440 228" fill="none" xmlns="http://www.w3.org/2000/svg">
<g id="Frame 123" clip-path="url(#clip0_0_131)">
<path id="Subtract" d="M1752.87 -10.7878C1760.9 -10.8233 1776.92 -10.7705 1777.71 -0.0739384C1778.37 8.76369 1779.53 17.8078 1780.27 26.8587L1780.27 26.8557C1781.26 38.9037 1781.66 51.3795 1778.65 63.1868C1777.36 68.2283 1773.66 69.1203 1768.93 69.0931C1763.14 69.0574 1757.15 67.3431 1751.49 69.1995C1744.91 71.379 1741.33 77.863 1735.79 81.6038C1727.93 87.0478 1715.89 85.4859 1708.99 79.1263C1700.4 70.6576 1702.92 56.7282 1686.88 57.1624C1649.29 62.2107 1684.49 152.476 1685.93 176.709C1687.23 189.409 1684.39 222.809 1665.35 217.421C1637.69 208.578 1646.82 173.876 1649.1 152.058C1650.9 133.907 1654.16 115.62 1653.58 97.4251C1653.15 88.142 1650.25 79.3145 1647.66 70.4661C1645.95 59.3096 1637.96 57.8218 1628.26 59.7386C1622.09 61.0019 1616.54 63.8703 1610.35 64.9095C1602.9 66.0606 1595.23 64.7746 1588.22 62.1634C1581.65 59.6915 1575.07 56.1378 1567.84 56.635C1558.51 57.1493 1552.95 66.501 1551.24 74.8138C1549.23 86.4406 1552.74 98.3801 1549.84 109.963C1548.74 113.849 1547.52 119.202 1543.2 120.545C1539 121.321 1536.09 117.113 1534.88 113.641C1532.43 106.873 1533.67 99.4019 1531.15 92.6507C1530.2 90.0425 1529.02 87.5152 1528.05 84.9153C1525.9 79.2088 1525.14 72.4895 1520.35 68.2347C1511.39 60.6276 1496.11 63.2413 1491.44 74.4222C1483.67 91.633 1490.33 111.295 1491.51 129.266C1492.33 139.737 1494.69 168.81 1486.13 175.266C1478.8 180.89 1467.19 176.181 1464.48 167.691C1457.99 148.582 1467.63 129.145 1468.45 109.895C1469.31 95.0905 1469.45 87.3044 1453.19 83.4241C1446.6 81.5125 1441.88 75.4754 1435.14 74.179C1432.08 73.966 1429.92 77.1956 1428.81 79.5335C1426.99 83.2249 1425.26 86.9743 1422.5 90.0833C1418.47 94.9121 1411.83 97.1431 1405.74 95.511C1392.8 92.4318 1387.72 78.5841 1383.4 67.4768C1379.44 59.1125 1367.12 61.9972 1361.63 67.2747C1353.64 74.2067 1350.77 85.4643 1341.6 91.1165C1332.78 96.9242 1320.08 95.964 1312.05 89.1722C1306.45 84.1518 1302.7 76.271 1294.55 74.9964C1279.92 71.7153 1269.4 86.5849 1255.38 87.3509C1251.36 87.5914 1247.37 86.8153 1243.77 84.97C1237.99 82.2301 1234.45 76.2711 1228.45 73.9739C1224.52 72.555 1219.78 73.4907 1217 76.6927C1216.52 77.4992 1215.95 78.3717 1215.23 78.9349C1215.15 79.137 1215.09 79.3425 1215.04 79.5501C1213.76 83.2222 1213.83 86.6376 1212.09 90.0364C1209.15 96.5248 1201.31 98.3398 1196.74 92.344C1193.72 88.7293 1193.63 83.826 1191.8 79.678C1188.96 74.6649 1184.08 74.2417 1179.04 74.0266C1178.37 74.0782 1177.66 74.0973 1176.93 74.0931C1171.14 74.0574 1165.15 72.3432 1159.49 74.1995C1152.91 76.379 1149.33 82.863 1143.79 86.6038C1135.93 92.0478 1123.89 90.4859 1116.99 84.1263C1108.4 75.6577 1110.92 61.7282 1094.88 62.1624C1057.29 67.2107 1092.49 157.476 1093.93 181.709C1095.23 194.409 1092.39 227.809 1073.35 222.421C1045.69 213.578 1054.82 178.876 1057.1 157.058C1058.9 138.907 1062.16 120.62 1061.58 102.425C1061.15 93.142 1058.25 84.3145 1055.66 75.4661C1053.95 64.3097 1045.96 62.8219 1036.26 64.7386C1030.09 66.0019 1024.54 68.8703 1018.35 69.9095C1010.9 71.0606 1003.23 69.7746 996.216 67.1634C989.646 64.6915 983.072 61.1378 975.836 61.635C966.506 62.1493 960.946 71.501 959.244 79.8138C957.233 91.4406 960.735 103.38 957.837 114.963C956.741 118.849 955.522 124.202 951.196 125.545C946.997 126.321 944.092 122.113 942.884 118.641C940.431 111.873 941.666 104.402 939.147 97.6507C938.202 95.0425 937.025 92.5152 936.052 89.9153C933.897 84.2088 933.142 77.4895 928.345 73.2347C919.387 65.6276 904.113 68.2412 899.444 79.4222C891.666 96.633 898.335 116.295 899.512 134.266C900.327 144.737 902.689 173.81 894.133 180.266C886.803 185.89 875.187 181.181 872.479 172.691C865.988 153.582 875.631 134.145 876.454 114.895C877.314 100.091 877.448 92.3045 861.191 88.4241C854.597 86.5127 849.88 80.4755 843.14 79.179C840.075 78.9661 837.92 82.1956 836.813 84.5335C834.988 88.2249 833.256 91.9743 830.503 95.0833C826.47 99.9121 819.833 102.143 813.736 100.511C800.801 97.4318 795.718 83.5841 791.402 72.4768C787.44 64.1125 775.122 66.9972 769.626 72.2747C761.643 79.2066 758.774 90.4643 749.597 96.1165C740.779 101.924 728.075 100.964 720.054 94.1722C714.446 89.1518 710.699 81.2711 702.55 79.9964C687.918 76.7153 677.396 91.5847 663.384 92.3509C659.364 92.5914 655.369 91.8152 651.774 89.97C645.991 87.2301 642.449 81.2711 636.45 78.9739C632.524 77.555 627.782 78.4907 625.001 81.6927C624.52 82.4992 623.946 83.3717 623.23 83.9349C623.148 84.137 623.085 84.3425 623.042 84.5501C621.763 88.2223 621.825 91.6376 620.093 95.0364C617.148 101.525 609.308 103.34 604.735 97.344C601.719 93.7293 601.63 88.826 599.798 84.678C597.069 79.8598 592.452 79.2825 587.629 79.054C587.079 79.0846 586.511 79.0964 585.927 79.0931C580.139 79.0574 574.147 77.3432 568.487 79.1995C561.914 81.379 558.329 87.863 552.795 91.6038C544.927 97.0478 532.887 95.4859 525.994 89.1263C517.405 80.6577 519.922 66.7282 503.879 67.1624C466.293 72.2107 501.487 162.476 502.927 186.709C504.233 199.409 501.386 232.809 482.353 227.421C454.687 218.578 463.822 183.876 466.095 162.058C467.901 143.907 471.157 125.62 470.581 107.425C470.149 98.142 467.248 89.3145 464.661 80.4661C462.945 69.3097 454.964 67.8219 445.263 69.7386C439.092 71.0019 433.535 73.8703 427.353 74.9095C419.898 76.0606 412.231 74.7746 405.216 72.1634C398.646 69.6915 392.072 66.1378 384.836 66.635C375.506 67.1493 369.946 76.501 368.244 84.8138C366.233 96.4406 369.735 108.38 366.837 119.963C365.741 123.849 364.522 129.202 360.196 130.545C355.997 131.321 353.092 127.113 351.884 123.641C349.431 116.873 350.666 109.402 348.147 102.651C347.202 100.043 346.025 97.5152 345.052 94.9153C342.897 89.2088 342.142 82.4895 337.345 78.2347C328.387 70.6276 313.113 73.2412 308.444 84.4222C300.666 101.633 307.335 121.295 308.512 139.266C309.327 149.737 311.689 178.81 303.133 185.266C295.803 190.89 284.187 186.181 281.479 177.691C274.988 158.582 284.631 139.145 285.454 119.895C286.314 105.091 286.448 97.3045 270.191 93.4241C263.597 91.5127 258.88 85.4755 252.14 84.179C249.075 83.9661 246.92 87.1956 245.813 89.5335C243.988 93.2249 242.256 96.9743 239.503 100.083C235.47 104.912 228.833 107.143 222.736 105.511C209.801 102.432 204.718 88.5841 200.402 77.4768C196.44 69.1125 184.122 71.9972 178.626 77.2747C170.643 84.2066 167.774 95.4643 158.597 101.116C149.779 106.924 137.075 105.964 129.054 99.1722C123.446 94.1518 119.699 86.2711 111.55 84.9964C96.9184 81.7153 86.3963 96.5847 72.3845 97.3509C68.3637 97.5914 64.3689 96.8152 60.7741 94.97C54.991 92.2301 51.4487 86.2711 45.4499 83.9739C41.5242 82.555 36.7817 83.4907 34.0007 86.6927C33.5199 87.4992 32.9457 88.3717 32.2302 88.9349C32.1483 89.137 32.0853 89.3425 32.0417 89.5501C30.7634 93.2223 30.8254 96.6376 29.0934 100.036C26.1484 106.525 18.3084 108.34 13.735 102.344C10.7194 98.7293 10.6303 93.8259 8.79754 89.678C2.32265 78.2437 -14.7864 90.6937 -20.054 75.0052C-22.9716 64.341 -20.6095 53.0303 -20.888 42.1145C-21.0984 33.8152 -25.2777 2.26163 -15.932 -1.49874C-11.1888 -3.40631 -5.62429 -3.20043 -0.000310898 -2.50656V0.00028038H1440V-10.6657C1448.17 -10.5017 1456.34 -10.3316 1464.51 -10.1609C1560.69 -8.15103 1656.69 -10.3612 1752.87 -10.7878ZM218.912 142.708C220.644 138.727 223.857 135.211 229.782 137.601C235.073 140.48 235.254 145.859 235.718 150.404C235.79 156.053 238.517 169.965 224.52 169.293C213.5 168.765 216.289 154.642 217.114 149.28C217.354 147.735 217.86 145.137 218.915 142.711L218.912 142.708ZM809.912 137.708C811.644 133.727 814.857 130.211 820.782 132.601C826.073 135.48 826.254 140.859 826.718 145.404C826.79 151.053 829.517 164.965 815.52 164.293C804.5 163.765 807.289 149.642 808.114 144.28C808.354 142.735 808.86 140.137 809.915 137.711L809.912 137.708ZM1401.91 132.708C1403.64 128.727 1406.86 125.211 1412.78 127.601C1418.07 130.48 1418.25 135.859 1418.72 140.404C1418.79 146.054 1421.52 159.965 1407.52 159.293C1396.5 158.765 1399.29 144.642 1400.11 139.28C1400.35 137.735 1400.86 135.137 1401.91 132.711L1401.91 132.708ZM443.135 91.5599C444.007 87.122 448.676 82.2358 453.066 85.9182H453.069C461.048 92.3055 461.824 136.843 445.614 130.578C437.061 124.669 441.051 112.232 441.649 103.539C442.327 99.5828 441.912 95.4098 443.135 91.5599ZM1034.14 86.5599C1035.01 82.122 1039.68 77.2359 1044.07 80.9182H1044.07C1052.05 87.3055 1052.82 131.843 1036.61 125.578C1028.06 119.669 1032.05 107.232 1032.65 98.5393C1033.33 94.5828 1032.91 90.4097 1034.14 86.5599ZM1626.14 81.5599C1627.01 77.1218 1631.68 72.2353 1636.07 75.9182H1636.07C1644.05 82.3053 1644.82 126.844 1628.61 120.578C1620.06 114.669 1624.05 102.232 1624.65 93.5393C1625.33 89.5829 1624.91 85.4097 1626.14 81.5599Z" fill="var(--fill-0, #F8BA43)"/>
</g>
<defs>
<clipPath id="clip0_0_131">
<rect width="1440" height="228" fill="white"/>
</clipPath>
</defs>
</svg>
