<svg preserveAspectRatio="none" width="100%" height="100%" overflow="visible" style="display: block;" viewBox="0 0 233.812 171.428" fill="none" xmlns="http://www.w3.org/2000/svg">
<g id="ui-design">
<path id="Vector 13" d="M17.7554 113.197C-9.54127 72.3303 0.185754 50.5227 10.4248 35.5459C22.4707 17.926 38.9443 9.70667 65.2664 2.95923C103.476 -6.83545 155.309 9.98568 176.537 19.9982C200.695 31.3931 227.483 59.4349 204.333 94.7056C181.183 129.976 138.304 167.217 102.504 170.989C66.7043 174.762 45.052 154.065 17.7554 113.197Z" fill="var(--fill-0, #FFEAC2)"/>
<path id="Vector 12" d="M12.9389 88.3725C0.407587 45.4174 18.8981 28.0844 35.2853 16.9992C54.5643 3.9578 74.8072 0.371272 104.69 0.371353C148.067 0.371471 186.308 20.3714 207.991 38.3713C228.984 55.7994 251.034 88.3725 213.44 114.7C175.846 141.027 117.045 164.583 78.4875 159.733C39.9295 154.884 25.4703 131.328 12.9389 88.3725Z" fill="var(--fill-0, #FFAD0D)"/>
</g>
</svg>
