<svg preserveAspectRatio="none" width="100%" height="100%" overflow="visible" style="display: block;" viewBox="0 0 47.5 64" fill="none" xmlns="http://www.w3.org/2000/svg">
<g id="Group">
<path id="Vector" d="M42.75 5.1C42.75 2.2875 40.4625 0 37.65 0H9.85C7.0375 0 4.75 2.2875 4.75 5.1V6.99375H42.75V5.1Z" fill="var(--fill-0, white)"/>
<path id="Vector_2" d="M4.75 10.7437H42.75V14.5H4.75V10.7437Z" fill="var(--fill-0, white)"/>
<path id="Vector_3" d="M4.75 58.9C4.75 61.7125 7.0375 64 9.85 64H37.65C40.4625 64 42.75 61.7125 42.75 58.9V52H4.75V58.9ZM20.5625 55.25H26.9375C27.9725 55.25 28.8125 56.09 28.8125 57.125C28.8125 58.16 27.9725 59 26.9375 59H20.5625C19.5275 59 18.6875 58.16 18.6875 57.125C18.6875 56.09 19.5275 55.25 20.5625 55.25Z" fill="var(--fill-0, white)"/>
<path id="Vector_4" d="M45.625 18.25H1.875C0.84 18.25 0 19.09 0 20.125V46.375C0 47.41 0.84 48.25 1.875 48.25H45.625C46.66 48.25 47.5 47.41 47.5 46.375V20.125C47.5 19.09 46.66 18.25 45.625 18.25ZM16.9513 35.8625C17.6838 36.5937 17.6838 37.7812 16.9513 38.5137C16.585 38.88 16.105 39.0625 15.625 39.0625C15.145 39.0625 14.665 38.88 14.2987 38.5137L10.3612 34.5762C9.63 33.8437 9.63 32.6562 10.3612 31.925L14.2987 27.9875C15.0312 27.255 16.2188 27.255 16.9513 27.9875C17.6838 28.7187 17.6838 29.9063 16.9513 30.6388L14.3388 33.25L16.9513 35.8625ZM27.3213 26.8425L23.8125 40.585C23.5715 41.5786 22.5075 42.2015 21.5312 41.9375C20.5287 41.6813 19.9225 40.66 20.1787 39.6575L23.6875 25.915C23.9342 24.9276 24.9624 24.2998 25.9688 24.5625C26.9713 24.8187 27.5775 25.84 27.3213 26.8425ZM37.1387 34.5762L33.2012 38.5137C32.835 38.88 32.355 39.0625 31.875 39.0625C31.395 39.0625 30.915 38.88 30.5488 38.5137C29.8175 37.7812 29.8175 36.5938 30.5488 35.8613L33.1613 33.25L30.5488 30.6388C29.8175 29.9063 29.8175 28.7187 30.5488 27.9862C31.2813 27.255 32.4687 27.255 33.2012 27.9862L37.1387 31.9237C37.87 32.6562 37.87 33.8437 37.1387 34.5762Z" fill="var(--fill-0, #FFEAC2)"/>
</g>
</svg>
