<svg preserveAspectRatio="none" width="100%" height="100%" overflow="visible" style="display: block;" viewBox="0 0 64 64" fill="none" xmlns="http://www.w3.org/2000/svg">
<g id="Group">
<path id="Vector" d="M4.54974 31.9988C4.54974 42.8633 10.8621 52.2541 20.0208 56.7051L6.92459 20.8281C5.4039 24.2398 4.54974 28.0193 4.54974 31.9988ZM50.531 30.6114C50.531 27.2194 49.3139 24.8693 48.2672 23.0425C46.8774 20.7787 45.5715 18.868 45.5715 16.6042C45.5715 14.0837 47.4847 11.7335 50.1804 11.7335C50.3014 11.7335 50.4174 11.7484 50.5384 11.7533C45.6529 7.27761 39.1455 4.54727 32.0012 4.54727C22.4105 4.54727 13.9726 9.46731 9.06492 16.9227C9.70924 16.9424 10.3165 16.9548 10.8325 16.9548C13.7035 16.9548 18.1471 16.6042 18.1471 16.6042C19.6258 16.5178 19.8011 18.6927 18.3224 18.868C18.3224 18.868 16.8338 19.0408 15.1823 19.1272L25.1779 48.8622L31.1866 30.8459L26.9109 19.1272C25.4321 19.0408 24.0299 18.868 24.0299 18.868C22.5487 18.7791 22.724 16.5153 24.2027 16.6042C24.2027 16.6042 28.7352 16.9548 31.431 16.9548C34.302 16.9548 38.7481 16.6042 38.7481 16.6042C40.2293 16.5178 40.4021 18.6927 38.9234 18.868C38.9234 18.868 37.4323 19.0408 35.7832 19.1272L45.7023 48.6351L48.4425 39.4862C49.8348 35.919 50.531 32.964 50.531 30.6114ZM32.4826 34.4008L24.2447 58.332C26.706 59.0553 29.3055 59.4503 32.0012 59.4503C35.1957 59.4503 38.2642 58.8973 41.118 57.895C41.0464 57.7765 40.9773 57.6506 40.9205 57.5173L32.4826 34.4008ZM56.0879 18.8285C56.2089 19.7024 56.2731 20.6405 56.2731 21.6526C56.2731 24.4373 55.7497 27.5675 54.1846 31.4828L45.801 55.7251C53.9624 50.9655 59.4503 42.1252 59.4503 31.9988C59.4503 27.2244 58.2307 22.7364 56.0879 18.8285Z" fill="var(--fill-0, #C5EFF1)"/>
<g id="Group_2">
<path id="Vector_2" d="M0 31.9988C0 49.6423 14.3553 64 31.9988 64C49.6472 64 64 49.6423 64 31.9988C64 14.3553 49.6472 0 32.0012 0C14.3553 0 0 14.3528 0 31.9988ZM1.46638 31.9988C1.46638 15.165 15.1625 1.46638 31.9988 1.46638C48.835 1.46638 62.5336 15.165 62.5336 31.9988C62.5336 48.8326 48.835 62.5311 32.0012 62.5311C15.1674 62.5311 1.46638 48.8326 1.46638 31.9988Z" fill="var(--fill-0, white)"/>
</g>
</g>
</svg>
