<svg preserveAspectRatio="none" width="100%" height="100%" overflow="visible" style="display: block;" viewBox="0 0 64 54.06" fill="none" xmlns="http://www.w3.org/2000/svg">
<g id="Group">
<path id="Vector" d="M17.9599 30.302H26.7101V34.052H17.9599V30.302Z" fill="var(--fill-0, #C5EFF1)"/>
<path id="Vector_2" d="M60.7484 40.7759V14.3881C60.7484 10.5973 57.6643 7.51312 53.8734 7.51312H52.3125V20.6512C52.3125 21.6867 51.473 22.5262 50.4375 22.5262H13.5625C12.527 22.5262 11.6875 21.6867 11.6875 20.6512V7.51312H10.1266C6.33575 7.51312 3.25163 10.5973 3.25163 14.3881V40.7759H60.7484ZM36.2588 26.552H47.9151C48.9506 26.552 49.7901 27.3915 49.7901 28.427C49.7901 29.4625 48.9506 30.302 47.9151 30.302H36.2588C35.2233 30.302 34.3838 29.4625 34.3838 28.427C34.3838 27.3915 35.2231 26.552 36.2588 26.552ZM36.2588 34.052H47.9151C48.9506 34.052 49.7901 34.8915 49.7901 35.927C49.7901 36.9625 48.9506 37.802 47.9151 37.802H36.2588C35.2233 37.802 34.3838 36.9625 34.3838 35.927C34.3838 34.8915 35.2231 34.052 36.2588 34.052ZM14.2099 28.427C14.2099 27.3915 15.0494 26.552 16.0849 26.552H28.5851C29.6206 26.552 30.4601 27.3915 30.4601 28.427V35.927C30.4601 36.9625 29.6206 37.802 28.5851 37.802H16.0849C15.0494 37.802 14.2099 36.9625 14.2099 35.927V28.427Z" fill="var(--fill-0, #C5EFF1)"/>
<path id="Vector_3" d="M64 46.5731C64 45.4425 63.0834 44.5259 61.9528 44.5259H2.04725C0.916625 44.5259 0 45.4425 0 46.5731C0 50.708 3.352 54.06 7.48688 54.06H56.5131C60.648 54.06 64 50.708 64 46.5731Z" fill="var(--fill-0, white)"/>
<path id="Vector_4" d="M41.5127 8.50163L34.897 14.4721C34.2882 15.0216 33.3929 15.1116 32.6869 14.6944L28.0175 11.9353L19.7774 18.7762H48.5625V13.1319L41.5127 8.50163Z" fill="var(--fill-0, white)"/>
<path id="Vector_5" d="M15.4375 0V17.5053L26.6375 8.20712C27.2465 7.70137 28.1075 7.63275 28.789 8.0355L33.4079 10.7647L40.0754 4.7475C40.7086 4.176 41.6479 4.104 42.3609 4.57225L48.5625 8.64537V0H15.4375ZM21.0284 7.53762C19.9929 7.53762 19.1534 6.69812 19.1534 5.66262C19.1534 4.62712 19.9929 3.78762 21.0284 3.78762C22.0639 3.78762 22.9034 4.62712 22.9034 5.66262C22.9034 6.69825 22.0639 7.53762 21.0284 7.53762Z" fill="var(--fill-0, white)"/>
</g>
</svg>
