<svg preserveAspectRatio="none" width="100%" height="100%" overflow="visible" style="display: block;" viewBox="0 0 63.9155 63.7575" fill="none" xmlns="http://www.w3.org/2000/svg">
<g id="Glyph">
<path id="Vector" d="M3.75 60.3198H53.0865V61.5073C53.0864 61.9577 53.2216 62.3977 53.4744 62.7705C53.7272 63.1433 54.0861 63.4316 54.5046 63.5981C54.9231 63.7646 55.3819 63.8017 55.8217 63.7046C56.2615 63.6075 56.6621 63.3806 56.9715 63.0533L63.3 56.3663C63.6952 55.9485 63.9155 55.3952 63.9155 54.82C63.9155 54.2449 63.6952 53.6916 63.3 53.2738L56.9715 46.5863C56.6621 46.259 56.2615 46.0321 55.8217 45.9349C55.3819 45.8378 54.9231 45.8749 54.5046 46.0415C54.0861 46.208 53.7272 46.4963 53.4744 46.869C53.2216 47.2418 53.0864 47.6819 53.0865 48.1323V49.3198H3.75C2.75576 49.3208 1.80255 49.7163 1.09952 50.4193C0.396487 51.1223 0.00105883 52.0755 0 53.0698L0 56.5698C0.00105883 57.564 0.396487 58.5172 1.09952 59.2203C1.80255 59.9233 2.75576 60.3187 3.75 60.3198Z" fill="var(--fill-0, #FFEAC2)"/>
<path id="Vector_2" d="M24.43 10.8653L31.115 17.9353C31.4244 18.2625 31.8249 18.4894 32.2647 18.5866C32.7044 18.6837 33.1632 18.6467 33.5817 18.4802C34.0002 18.3137 34.359 18.0255 34.6119 17.6528C34.8648 17.2801 35 16.8401 35 16.3898V15.0743C38.3885 15.6612 41.5287 17.2343 44.0276 19.5969C46.5266 21.9594 48.2733 25.0065 49.0492 28.3567C49.8252 31.707 49.5959 35.2117 48.3901 38.4323C47.1843 41.6529 45.0554 44.4464 42.27 46.4633C42.1447 46.5579 42.052 46.6893 42.0049 46.839C41.9578 46.9888 41.9586 47.1496 42.0072 47.2989C42.0558 47.4482 42.1498 47.5786 42.276 47.672C42.4023 47.7654 42.5545 47.817 42.7115 47.8198H50.9615C51.1297 47.8198 51.293 47.7633 51.4252 47.6594C51.5574 47.5555 51.6508 47.4102 51.6905 47.2468C51.8891 46.4269 52.3584 45.698 53.0224 45.1778C53.6864 44.6576 54.5065 44.3764 55.35 44.3798C56.006 44.3797 56.6502 44.5541 57.2165 44.8853C57.3066 44.9373 57.4066 44.97 57.51 44.9815C57.6134 44.993 57.7181 44.983 57.8174 44.9521C57.9168 44.9212 58.0087 44.8701 58.0874 44.802C58.166 44.7339 58.2297 44.6502 58.2745 44.5563C60.0761 40.729 61.0069 36.5499 61 32.3198C60.9686 25.1569 58.3003 18.2564 53.5044 12.9359C48.7086 7.61537 42.1212 4.24749 35 3.47527V2.24977C35 1.79941 34.8648 1.35942 34.6119 0.986734C34.359 0.614051 34.0002 0.325827 33.5817 0.159355C33.1632 -0.00711779 32.7044 -0.0441771 32.2647 0.0529716C31.8249 0.15012 31.4244 0.377006 31.115 0.704273L24.433 7.76977C24.0332 8.18566 23.8096 8.74001 23.809 9.31692C23.8085 9.89383 24.031 10.4486 24.43 10.8653Z" fill="var(--fill-0, white)"/>
<path id="Vector_3" d="M7.9225 47.8198H21.278C21.435 47.8172 21.5873 47.7657 21.7136 47.6724C21.8399 47.579 21.934 47.4486 21.9826 47.2993C22.0312 47.15 22.032 46.9892 21.9848 46.8394C21.9377 46.6896 21.8449 46.5583 21.7195 46.4638C19.1678 44.6131 17.1638 42.107 15.9198 39.2106C14.6757 36.3143 14.2378 33.1355 14.6524 30.0107C15.067 26.8859 16.3187 23.9313 18.275 21.4595C20.2313 18.9878 22.8194 17.091 25.7655 15.9698C25.8798 15.9247 25.9814 15.8524 26.0615 15.7592C26.1415 15.666 26.1976 15.5546 26.2248 15.4348C26.2521 15.315 26.2497 15.1903 26.2178 15.0716C26.1859 14.9529 26.1256 14.8438 26.042 14.7538L23.337 11.8928C22.6725 11.1971 22.303 10.2712 22.3059 9.30915C22.3088 8.3471 22.6839 7.42349 23.3525 6.73177L24.184 5.85177C24.2946 5.73034 24.3625 5.57611 24.3774 5.41254C24.3923 5.24897 24.3534 5.08501 24.2666 4.94557C24.1798 4.80614 24.0499 4.69886 23.8965 4.64005C23.7431 4.58125 23.5748 4.57413 23.417 4.61977C19.1964 5.92432 15.33 8.17672 12.1135 11.2048C8.89694 14.2328 6.41541 17.9562 4.85863 22.0904C3.30185 26.2246 2.71106 30.6601 3.13143 35.0576C3.55179 39.4552 4.97219 43.6984 7.284 47.4628C7.3511 47.5718 7.44501 47.6619 7.55677 47.7244C7.66854 47.7869 7.79445 47.8197 7.9225 47.8198Z" fill="var(--fill-0, white)"/>
</g>
</svg>
