<svg preserveAspectRatio="none" width="100%" height="100%" overflow="visible" style="display: block;" viewBox="0 0 226.393 171.434" fill="none" xmlns="http://www.w3.org/2000/svg">
<g id="website-layout">
<path id="Vector 14" d="M0.874398 96.4254C-4.40781 73.7723 15.2202 56.3246 33.448 46.0039C95.1279 11.0804 146.154 23.5177 170.785 37.9656C194.609 51.9401 206 76.8477 206 105.194C206 120.788 198.077 143.193 170.785 159.27C143.494 175.346 113.561 174.615 73.9449 162.193C34.3284 149.77 6.1566 119.079 0.874398 96.4254Z" fill="var(--fill-0, #C5EFF1)"/>
<path id="Vector 15" d="M1.44347 50.1118C1.44365 28.5394 25.7108 9.34407 55.3112 4.00461C130.974 -9.64425 180.381 14.8905 202.346 35.5748C224.312 56.259 232.943 87.1118 221.003 115.974C209.062 144.837 176.295 154.798 157.93 158.389C124.204 164.984 84.3273 151.761 49.5395 129.474C14.7517 107.187 1.44331 68.4342 1.44347 50.1118Z" fill="var(--fill-0, #48B4B9)"/>
</g>
</svg>
