<svg preserveAspectRatio="none" width="100%" height="100%" overflow="visible" style="display: block;" viewBox="0 0 234.94 165.529" fill="none" xmlns="http://www.w3.org/2000/svg">
<g id="wordpress-design">
<path id="Vector 17" d="M21.5683 48.1289C57.0592 11.1599 89.4322 10.9602 117.387 13.908C157.307 18.1176 196.801 39.7543 217.102 71.5253C237.343 103.202 226.241 153.302 174.139 162.985C122.036 172.667 70.165 153.225 33.7654 129.874C-2.63419 106.524 -13.9226 85.0979 21.5683 48.1289Z" fill="var(--fill-0, #FFEAC2)"/>
<path id="Vector 16" d="M18.1054 77.8985C38.0937 29.2182 68.403 10.7558 95.3871 3.80143C133.921 -6.1296 183.403 3.91758 213.386 27.8714C243.279 51.7539 244.972 108.807 199.999 136.624C155.025 164.441 100.057 163.669 58.082 153.623C16.1066 143.578 -1.88285 126.579 18.1054 77.8985Z" fill="var(--fill-0, #FFAD0D)"/>
</g>
</svg>
