<svg preserveAspectRatio="none" width="100%" height="100%" overflow="visible" style="display: block;" viewBox="0 0 108.789 79.119" fill="none" xmlns="http://www.w3.org/2000/svg">
<path id="service-title" d="M108.412 43.2441C105.835 63.7409 90.7864 78.795 74.8013 76.8684C72.3895 76.5774 70.0933 75.9146 67.943 74.9311C67.9403 74.9311 67.9348 74.9284 67.932 74.9257C62.0016 72.0965 58.3123 67.004 57.01 61.8764C56.8834 61.3294 56.7705 60.7743 56.6714 60.2112C56.4043 60.8013 56.1125 61.3752 55.7931 61.9276C55.7931 61.9276 55.7931 61.9303 55.7931 61.933C48.4751 73.8129 36.5702 80.7916 24.602 78.7734C7.62569 75.9119 -3.04024 56.0347 0.772952 34.3792C4.58339 12.721 21.4358 -2.51621 38.4093 0.345322C38.4341 0.348016 38.4644 0.353405 38.4892 0.358794C44.3232 1.36383 48.844 5.95522 49.7002 11.6891C50.1132 14.4536 50.0279 17.687 49.1496 21.4107C48.5054 21.0443 47.8253 20.7236 47.115 20.4569C38.4259 17.1669 28.1949 22.5586 24.2661 32.4985C20.3345 42.4411 24.1918 53.1678 32.8809 56.4578C39.5602 58.9879 47.1563 56.385 52.0955 50.5245C52.5746 49.9587 53.0289 49.3605 53.4529 48.7327C53.4529 48.73 53.4584 48.7246 53.4611 48.7219C55.7711 45.4724 57.3652 42.1878 57.8112 41.0184C58.0755 42.3899 58.483 43.6967 59.0171 44.9146C61.049 49.5357 64.9035 52.8526 69.6555 53.4238C77.4856 54.3669 84.7954 47.5121 85.9765 38.1111C87.1604 28.7101 81.7696 20.3249 73.9395 19.3791C70.5063 18.9641 67.1749 20.05 64.4162 22.1921C63.1827 19.115 63.1827 16.1834 63.9206 13.5914C64.1931 12.6375 64.5648 11.7295 65.0108 10.878C65.0329 10.8322 65.0577 10.7891 65.0824 10.746C68.0256 5.42441 74.2451 2.9428 78.9944 2.44971H78.9999C80.6739 2.33923 82.3726 2.42815 84.1402 2.64102C100.123 4.56757 110.989 22.7472 108.41 43.2441H108.412Z" fill="var(--fill-0, #EFEFEF)"/>
</svg>
