<svg preserveAspectRatio="none" width="100%" height="100%" overflow="visible" style="display: block;" viewBox="0 0 104.185 75.7706" fill="none" xmlns="http://www.w3.org/2000/svg">
<path id="about-title" d="M103.824 41.414C101.356 61.0434 86.9443 75.4603 71.6356 73.6153C69.3259 73.3366 67.1269 72.7018 65.0676 71.76C65.065 71.76 65.0597 71.7574 65.0571 71.7548C59.3776 69.0453 55.8445 64.1683 54.5973 59.2577C54.476 58.7339 54.3679 58.2023 54.273 57.663C54.0172 58.2281 53.7378 58.7778 53.4319 59.3067C53.4319 59.3067 53.4319 59.3093 53.4319 59.3119C46.4236 70.6891 35.0225 77.3724 23.5608 75.4397C7.30297 72.6992 -2.91158 53.6633 0.74024 32.9243C4.38942 12.1827 20.5286 -2.40972 36.7838 0.330707C36.8076 0.333288 36.8366 0.338449 36.8603 0.34361C42.4474 1.30612 46.7769 5.70319 47.5969 11.1944C47.9924 13.8419 47.9107 16.9384 47.0696 20.5046C46.4526 20.1537 45.8013 19.8466 45.121 19.5911C36.7996 16.4404 27.0017 21.6039 23.2391 31.1231C19.4739 40.645 23.1679 50.9177 31.4893 54.0684C37.886 56.4915 45.1606 53.9988 49.8908 48.3863C50.3496 47.8444 50.7847 47.2716 51.1907 46.6703C51.1907 46.6677 51.196 46.6626 51.1986 46.66C53.4108 43.548 54.9374 40.4024 55.3646 39.2825C55.6177 40.5959 56.0079 41.8475 56.5195 43.0138C58.4653 47.4393 62.1567 50.6158 66.7076 51.1629C74.2064 52.066 81.2068 45.5014 82.338 36.4982C83.4717 27.495 78.3091 19.4647 70.8103 18.559C67.5224 18.1616 64.332 19.2015 61.69 21.2529C60.5088 18.3061 60.5088 15.4986 61.2154 13.0162C61.4764 12.1027 61.8324 11.2331 62.2595 10.4177C62.2806 10.3738 62.3044 10.3325 62.3281 10.2912C65.1467 5.19484 71.103 2.81826 75.6513 2.34603H75.6566C77.2597 2.24024 78.8865 2.32539 80.5793 2.52925C95.8853 4.37426 106.292 21.7845 103.822 41.414H103.824Z" fill="var(--fill-0, #E1E1E1)"/>
</svg>
