<svg width="29" height="14" viewBox="0 0 29 14" fill="none" xmlns="http://www.w3.org/2000/svg">
<g clip-path="url(#clip0_282_3124)">
<path d="M12.0369 7.74268C12.0369 7.74268 12.2354 5.70942 10.7385 5.01996C9.24169 4.33051 7.54725 5.06514 7.54725 5.06514C7.54725 5.06514 10.4072 5.07427 12.0369 7.74268Z" fill="white"/>
<path d="M22.5474 3.49794C22.5474 3.49794 24.4933 3.03293 25.4265 4.44413C26.3597 5.85532 25.943 7.65201 25.943 7.65201C25.943 7.65201 25.4316 4.78378 22.5474 3.49794Z" fill="white"/>
<path fill-rule="evenodd" clip-rule="evenodd" d="M8.85587 8.92374C9.71027 9.59799 9.72518 11.0395 8.88917 12.1434C8.05316 13.2474 6.68282 13.5957 5.82842 12.9215C5.06212 12.3168 4.97111 11.0949 5.56363 10.0529C5.55272 10.3801 5.67295 10.6915 5.92233 10.8886C6.36938 11.2419 7.04596 11.1277 7.45493 10.5696L7.45383 10.569C7.8415 10.0392 7.81063 9.32709 7.36534 8.9732C7.23239 8.86754 7.07782 8.80704 6.9159 8.78803C7.5937 8.48062 8.32455 8.50445 8.85587 8.92374Z" fill="white"/>
<path fill-rule="evenodd" clip-rule="evenodd" d="M20.4744 8.99381C21.2976 9.70578 21.2477 11.1465 20.3629 12.2118C19.4781 13.277 18.0935 13.5634 17.2703 12.8514C16.5317 12.2127 16.4959 10.9874 17.1353 9.97286C17.1092 10.2999 17.2153 10.617 17.4559 10.8254C17.8866 11.1985 18.5677 11.1148 19.0013 10.5757L19.0002 10.575C19.4113 10.0632 19.4125 9.35044 18.9836 8.97689C18.8551 8.865 18.7029 8.79754 18.5414 8.77145C19.2327 8.49433 19.9622 8.55083 20.4744 8.99381Z" fill="white"/>
</g>
<defs>
<clipPath id="clip0_282_3124">
<rect width="28" height="13" fill="white" transform="translate(0.547363 0.424561)"/>
</clipPath>
</defs>
</svg>
