<svg preserveAspectRatio="none" width="100%" height="100%" overflow="visible" style="display: block;" viewBox="0 0 97.3144 70.7741" fill="none" xmlns="http://www.w3.org/2000/svg">
<path id="works-title" d="M96.9779 38.683C94.6727 57.018 81.2109 70.4843 66.9118 68.7609C64.7544 68.5006 62.7004 67.9077 60.7769 67.0279C60.7744 67.0279 60.7695 67.0255 60.767 67.0231C55.4621 64.4923 52.1619 59.9369 50.997 55.3501C50.8837 54.8608 50.7828 54.3643 50.6941 53.8606C50.4552 54.3884 50.1941 54.9018 49.9085 55.3959C49.9085 55.3959 49.9085 55.3983 49.9085 55.4007C43.3623 66.0277 32.713 72.2703 22.0072 70.465C6.82139 67.9053 -2.71958 50.1246 0.691427 30.7532C4.09997 11.3793 19.1749 -2.25082 34.3582 0.3089C34.3804 0.31131 34.4075 0.316131 34.4296 0.320951C39.6483 1.21999 43.6923 5.32711 44.4582 10.4562C44.8277 12.9291 44.7513 15.8215 43.9657 19.1525C43.3894 18.8247 42.7811 18.5379 42.1456 18.2992C34.373 15.3563 25.2211 20.1793 21.7067 29.0708C18.1898 37.9647 21.6402 47.5601 29.4129 50.503C35.3877 52.7663 42.1826 50.438 46.6009 45.1956C47.0294 44.6894 47.4358 44.1544 47.8151 43.5928C47.8151 43.5903 47.82 43.5855 47.8224 43.5831C49.8888 40.6763 51.3147 37.7382 51.7137 36.6921C51.9501 37.9189 52.3146 39.0879 52.7924 40.1774C54.61 44.311 58.0579 47.2781 62.3088 47.7891C69.313 48.6327 75.8518 42.5009 76.9084 34.0914C77.9674 25.6819 73.1452 18.1811 66.1409 17.3351C63.0698 16.964 60.0898 17.9353 57.622 19.8515C56.5187 17.0989 56.5187 14.4765 57.1787 12.1578C57.4225 11.3046 57.755 10.4923 58.154 9.73069C58.1737 9.68972 58.1959 9.65116 58.218 9.61259C60.8508 4.85228 66.4143 2.63241 70.6627 2.19133H70.6676C72.165 2.09251 73.6845 2.17205 75.2657 2.36246C89.5624 4.08581 99.2831 20.348 96.9755 38.683H96.9779Z" fill="var(--fill-0, #48B4B9)"/>
</svg>
